<svg id="Layer_1" data-name="Layer 1" xmlns="http://www.w3.org/2000/svg" xmlns:xlink="http://www.w3.org/1999/xlink" viewBox="0 0 55 24.59"><defs><style>.cls-1{fill:url(#linear-gradient);}.cls-2{clip-path:url(#clip-path);}.cls-3{fill:url(#linear-gradient-3);}.cls-4{isolation:isolate;opacity:0.15;fill:url(#linear-gradient-4);}</style><linearGradient id="linear-gradient" y1="12.29" x2="55" y2="12.29" gradientUnits="userSpaceOnUse"><stop offset="0" stop-color="#fbca82"/><stop offset="1" stop-color="#927046"/></linearGradient><clipPath id="clip-path"><path class="cls-1" d="M12.29,24.59H42.71A12.3,12.3,0,0,0,55,12.29h0V2.18A2.19,2.19,0,0,0,52.82,0H2.18A2.19,2.19,0,0,0,0,2.18H0V12.29a12.3,12.3,0,0,0,12.29,12.3Z"/></clipPath><linearGradient id="linear-gradient-3" x1="-5.08" y1="12.29" x2="60.08" y2="12.29" xlink:href="#linear-gradient"/><linearGradient id="linear-gradient-4" x1="27.5" y1="-181.42" x2="27.5" y2="-197.93" gradientTransform="matrix(1, 0, 0, -1, 0, -180.44)" gradientUnits="userSpaceOnUse"><stop offset="0" stop-opacity="0"/><stop offset="1"/></linearGradient></defs><path class="cls-1" d="M12.29,24.59H42.71A12.3,12.3,0,0,0,55,12.29h0V2.18A2.19,2.19,0,0,0,52.82,0H2.18A2.19,2.19,0,0,0,0,2.18H0V12.29a12.3,12.3,0,0,0,12.29,12.3Z"/><g class="cls-2"><rect class="cls-3" x="-5.08" y="-5.08" width="65.16" height="34.75"/></g><path class="cls-4" d="M4.93,0H50.07V12.72a2,2,0,0,1-2,2H6.93a2,2,0,0,1-2-2V0Z"/><path d="M13.21,22.3h.88a.09.09,0,0,0,.1-.09V19.59a.09.09,0,0,1,.16-.05l2,2.73a.11.11,0,0,0,.08,0h.86a.1.1,0,0,0,.1-.09V20.43a.1.1,0,0,1,.09-.1H19a2.23,2.23,0,0,0,4.45-.13v-.71A2.23,2.23,0,0,0,19,19.35H17.51a.09.09,0,0,1-.09-.09V17.47a.1.1,0,0,0-.1-.09h-.89a.09.09,0,0,0-.09.09v2.72a.1.1,0,0,1-.17.06l-2.1-2.83a.09.09,0,0,0-.08,0h-.78a.1.1,0,0,0-.1.09v4.74a.1.1,0,0,0,.1.09m6.91-3.08a1.1,1.1,0,0,1,2.17,0,.85.85,0,0,1-.18.51.17.17,0,0,0,0,.21.85.85,0,0,1,.18.51,1.1,1.1,0,0,1-2.17,0,.85.85,0,0,1,.17-.51.17.17,0,0,0,0-.21.85.85,0,0,1-.17-.51"/><path d="M12.85,17.79a.4.4,0,0,1,0,.15.25.25,0,0,1-.08.12.34.34,0,0,1-.12.09.39.39,0,0,1-.3,0,.27.27,0,0,1-.12-.09.25.25,0,0,1-.08-.12.39.39,0,0,1,0-.3.42.42,0,0,1,.08-.12.25.25,0,0,1,.12-.08.39.39,0,0,1,.3,0,.32.32,0,0,1,.12.08.42.42,0,0,1,.08.12.4.4,0,0,1,0,.15m-.08,0a.25.25,0,0,0,0-.12.24.24,0,0,0-.16-.16.37.37,0,0,0-.24,0,.33.33,0,0,0-.1.06.21.21,0,0,0-.06.1.25.25,0,0,0,0,.24.21.21,0,0,0,.06.1l.1.07.12,0,.12,0,.1-.07a.33.33,0,0,0,.06-.1.25.25,0,0,0,0-.12m-.18.21h-.13a.15.15,0,0,1-.1,0,.13.13,0,0,1,0-.09.09.09,0,0,1,0-.07.12.12,0,0,1,.07-.05l-.11-.15h.08l.1.15h0V17.6h.07Zm-.13-.19-.05,0s0,0,0,0,0,0,0,.05h.11v-.12Z"/><path d="M33.83,22.3h.89a.09.09,0,0,0,.09-.09V19.59a.09.09,0,0,1,.17-.05l2,2.73a.11.11,0,0,0,.07,0H38a.09.09,0,0,0,.09-.09V20.43a.1.1,0,0,1,.09-.1h1.48a2.22,2.22,0,0,0,4.44-.13v-.71a2.22,2.22,0,0,0-4.44-.14H38.13a.09.09,0,0,1-.09-.09V17.47a.09.09,0,0,0-.09-.09h-.9a.09.09,0,0,0-.09.09v2.72a.1.1,0,0,1-.17.06l-2.11-2.83a.08.08,0,0,0-.07,0h-.79a.09.09,0,0,0-.09.09v4.74a.09.09,0,0,0,.09.09m6.91-3.08a1.1,1.1,0,0,1,2.17,0,.85.85,0,0,1-.17.51.17.17,0,0,0,0,.21.85.85,0,0,1,.17.51,1.1,1.1,0,0,1-2.17,0,.85.85,0,0,1,.18-.51.2.2,0,0,0,0-.21.85.85,0,0,1-.18-.51"/><path d="M33.48,17.79a.4.4,0,0,1,0,.15.36.36,0,0,1-.08.12.38.38,0,0,1-.13.09.33.33,0,0,1-.15,0,.32.32,0,0,1-.14,0,.38.38,0,0,1-.13-.09.36.36,0,0,1-.08-.12.39.39,0,0,1,0-.3.83.83,0,0,1,.08-.12.35.35,0,0,1,.13-.08.32.32,0,0,1,.14,0,.33.33,0,0,1,.15,0,.35.35,0,0,1,.13.08l.08.12a.4.4,0,0,1,0,.15m-.08,0a.5.5,0,0,0,0-.12.36.36,0,0,0-.07-.1.33.33,0,0,0-.1-.06.22.22,0,0,0-.12,0,.25.25,0,0,0-.12,0,.28.28,0,0,0-.09.06.36.36,0,0,0-.07.1.37.37,0,0,0,0,.24.36.36,0,0,0,.07.1.31.31,0,0,0,.09.07l.12,0,.12,0,.1-.07a.36.36,0,0,0,.07-.1.5.5,0,0,0,0-.12m-.19.21h-.13A.13.13,0,0,1,33,18a.1.1,0,0,1,0-.09.14.14,0,0,1,0-.07.12.12,0,0,1,.07-.05l-.1-.15H33l.1.15h0V17.6h.07Zm-.12-.19-.06,0a.05.05,0,0,0,0,0,.08.08,0,0,0,0,.05h.11v-.12Z"/></svg>