<svg id="Layer_1" data-name="Layer 1" xmlns="http://www.w3.org/2000/svg" xmlns:xlink="http://www.w3.org/1999/xlink" viewBox="0 0 37 35.31"><defs><style>.cls-1{fill-rule:evenodd;fill:url(#linear-gradient);}.cls-2{fill:url(#linear-gradient-2);}.cls-3{isolation:isolate;opacity:0.25;fill:url(#linear-gradient-3);}</style><linearGradient id="linear-gradient" x1="26.22" y1="-344.38" x2="4.39" y2="-382.48" gradientTransform="matrix(1, 0, 0, -1, 0, -338.65)" gradientUnits="userSpaceOnUse"><stop offset="0" stop-color="#fdcc84"/><stop offset="1" stop-color="#947046"/></linearGradient><linearGradient id="linear-gradient-2" x1="20.38" y1="-341.39" x2="-4.22" y2="-384.32" xlink:href="#linear-gradient"/><linearGradient id="linear-gradient-3" x1="18.46" y1="-348.11" x2="18.46" y2="-364.78" gradientTransform="matrix(1, 0, 0, -1, 0, -338.65)" gradientUnits="userSpaceOnUse"><stop offset="0" stop-opacity="0"/><stop offset="1"/></linearGradient></defs><path class="cls-1" d="M0,12.7V23A12.3,12.3,0,0,0,12.3,35.3H24.7A12.3,12.3,0,0,0,37,23V12.7a2.19,2.19,0,0,0-2.2-2.2H2.2A2.19,2.19,0,0,0,0,12.7Z"/><path class="cls-2" d="M7,0h22.9A2.1,2.1,0,0,1,32,2.11h0V10.6H4.91V2.11A2.1,2.1,0,0,1,7,0Z"/><path class="cls-3" d="M4.91,10.5H32V23.35a2,2,0,0,1-2,2H6.91a2,2,0,0,1-2-2V10.5Z"/><path d="M13,32.52h.89a.09.09,0,0,0,.09-.1V29.8a.1.1,0,0,1,.17-.05l2,2.73a.1.1,0,0,0,.07,0h.87a.09.09,0,0,0,.09-.1V30.64a.09.09,0,0,1,.09-.09h1.48a2.22,2.22,0,0,0,4.44-.14V29.7a2.22,2.22,0,0,0-4.44-.14H17.25a.09.09,0,0,1-.09-.09V27.69a.1.1,0,0,0-.09-.1h-.9a.1.1,0,0,0-.09.1V30.4a.1.1,0,0,1-.17.06l-2.11-2.83a.1.1,0,0,0-.07,0H13a.1.1,0,0,0-.09.1v4.73a.09.09,0,0,0,.09.1m6.91-3.09a1.1,1.1,0,0,1,2.17,0,.82.82,0,0,1-.17.51.17.17,0,0,0,0,.21.87.87,0,0,1,.17.52,1.1,1.1,0,0,1-2.17,0,.88.88,0,0,1,.18-.52.2.2,0,0,0,0-.21.83.83,0,0,1-.18-.51"/><path d="M12.6,28a.33.33,0,0,1,0,.15.33.33,0,0,1-.21.21.33.33,0,0,1-.15,0,.4.4,0,0,1-.15,0l-.12-.08a.57.57,0,0,1-.08-.13.33.33,0,0,1,0-.15.32.32,0,0,1,0-.14.57.57,0,0,1,.08-.13l.12-.08a.4.4,0,0,1,.15,0,.33.33,0,0,1,.15,0,.33.33,0,0,1,.21.21.32.32,0,0,1,0,.14m-.08,0a.5.5,0,0,0,0-.12.31.31,0,0,0-.07-.09l-.1-.07-.12,0-.12,0a.46.46,0,0,0-.16.16.25.25,0,0,0,0,.12.22.22,0,0,0,0,.12.36.36,0,0,0,.07.1.31.31,0,0,0,.09.07l.12,0,.12,0,.1-.07a.36.36,0,0,0,.07-.1.37.37,0,0,0,0-.12m-.19.21H12.2a.13.13,0,0,1-.1,0,.11.11,0,0,1,0-.08.19.19,0,0,1,0-.08.1.1,0,0,1,.07,0l-.1-.16h.08l.09.15h0v-.15h.07ZM12.21,28a.11.11,0,0,0-.06,0,.08.08,0,0,0,0,.05.05.05,0,0,0,0,0,.11.11,0,0,0,.06,0h0V28Z"/></svg>